<svg width="7" height="6" viewBox="0 0 7 6" fill="none" xmlns="http://www.w3.org/2000/svg">
<path d="M6.08317 0.551016C5.97442 0.565391 5.8738 0.616642 5.79818 0.696016L2.58314 3.91105L1.31815 2.90106C1.21878 2.82043 1.09127 2.78355 0.964408 2.7973C0.837532 2.81105 0.721288 2.87481 0.641288 2.97418C0.561288 3.07418 0.524413 3.20169 0.539413 3.32855C0.553788 3.45543 0.618163 3.57167 0.718165 3.65105L2.31816 4.93105C2.51066 5.08292 2.78629 5.06605 2.95816 4.89105L6.47816 1.37105C6.62566 1.2273 6.66504 1.00479 6.57566 0.819177C6.48629 0.632922 6.28816 0.525434 6.08317 0.55105L6.08317 0.551016Z" fill="#8974E7"/>
</svg>