<svg width="25" height="24" viewBox="0 0 25 24" fill="none" xmlns="http://www.w3.org/2000/svg">
<path d="M12.5569 5L12.5591 5.00002C12.6849 5.00111 12.8089 5.03592 12.9221 5.1019C12.988 5.14034 13.0492 5.18878 13.1043 5.24585L17.2926 9.25746C17.4462 9.43096 17.5397 9.66712 17.5547 9.91923C17.5698 10.1713 17.5052 10.421 17.3739 10.6189C17.2425 10.8167 17.0539 10.9484 16.8454 10.9877C16.6368 11.027 16.4236 10.9712 16.2477 10.8313L12.5569 7.2962L8.86602 10.8313C8.69021 10.9712 8.47694 11.027 8.2684 10.9877C8.05986 10.9484 7.87125 10.8167 7.73989 10.6189C7.60853 10.421 7.54398 10.1713 7.55903 9.91923C7.57407 9.66712 7.6676 9.43096 7.82112 9.25746L12.0095 5.24587C12.0646 5.18879 12.1258 5.14034 12.1917 5.1019C12.3055 5.03553 12.4303 5.0007 12.5569 5Z" fill="#7C91A2"/>
<path d="M12.5547 19C12.4288 18.9989 12.3048 18.9641 12.1917 18.8981C12.1258 18.8596 12.0645 18.8112 12.0094 18.7541L7.82112 14.7425C7.66761 14.569 7.57407 14.3329 7.55903 14.0808C7.54399 13.8287 7.60853 13.579 7.73989 13.3811C7.87126 13.1833 8.05986 13.0516 8.2684 13.0123C8.47694 12.973 8.69021 13.0288 8.86603 13.1687L12.5569 16.7038L16.2477 13.1687C16.4236 13.0288 16.6368 12.973 16.8454 13.0123C17.0539 13.0516 17.2425 13.1833 17.3739 13.3811C17.5052 13.579 17.5698 13.8287 17.5547 14.0808C17.5397 14.3329 17.4462 14.569 17.2926 14.7425L13.1044 18.7541C13.0493 18.8112 12.988 18.8596 12.9221 18.8981C12.8083 18.9645 12.6835 18.9993 12.5569 19L12.5547 19Z" fill="#7C91A2"/>
</svg>
