<svg width="248" height="20" viewBox="0 0 248 20" fill="none" xmlns="http://www.w3.org/2000/svg">
<path d="M190.9 19.589V2.79451H184.544V0.41095H199.832V2.79451H193.476V19.589H190.9Z" fill="white"/>
<path d="M182.882 19.589H179.978L175.923 12.1918H172.142V19.589H169.567V0.41095H176.471C180.142 0.41095 182.608 3.12328 182.608 6.32876C182.608 9.12328 181.046 11.2055 178.553 11.9178L182.882 19.589ZM172.142 2.79451V9.80821H176.252C178.717 9.80821 179.923 8.32876 179.923 6.32876C179.923 4.27396 178.443 2.79451 176.252 2.79451H172.142Z" fill="white"/>
<path d="M156.121 20C151.107 20 146.368 16.4932 146.368 10C146.368 3.50685 151.107 0 156.121 0C161.135 0 165.875 3.50685 165.875 10C165.875 16.4932 161.135 20 156.121 20ZM156.121 17.5342C159.738 17.5342 163.19 14.9589 163.19 10C163.19 5.06849 159.738 2.46575 156.121 2.46575C152.505 2.46575 149.053 5.06849 149.053 10C149.053 14.9589 152.505 17.5342 156.121 17.5342Z" fill="white"/>
<path d="M137.554 2.43836C134.019 2.43836 130.458 4.79452 130.458 10C130.458 15.2055 134.019 17.5616 137.554 17.5616C139.91 17.5616 141.937 16.8493 144.047 15.5069V18.2466C142.129 19.2603 140.293 20 137.554 20C132.567 20 127.773 16.6301 127.773 10C127.773 3.36986 132.567 0 137.554 0C140.293 0 142.129 0.739726 144.047 1.75343V4.49315C141.937 3.15069 139.91 2.43836 137.554 2.43836Z" fill="white"/>
<path d="M119.917 8.87671C123.15 9.58904 124.904 11.5616 124.904 14.3836C124.904 17.2877 122.657 20 118.493 20C115.561 20 113.452 19.0959 112.027 18.3288V15.7534C113.643 16.6849 116.109 17.6164 118.493 17.6164C121.178 17.6164 122.219 16.1918 122.219 14.3836C122.219 13.0137 121.26 11.726 119.315 11.3151L116.548 10.7123C113.671 10.0822 111.89 8.43836 111.89 5.42466C111.89 2.49315 114.301 0 118.657 0C120.876 0 122.493 0.520548 123.917 1.12329V3.75343C122.301 2.93151 120.438 2.35616 118.657 2.35616C116.137 2.35616 114.52 3.53425 114.52 5.42466C114.52 6.93151 115.369 7.89041 117.013 8.24658L119.917 8.87671Z" fill="white"/>
<path d="M96.8996 19.589V0.41095H108.598V2.79451H99.4749V8.76711H107.749V11.1507H99.4749V17.2055H108.598V19.589H96.8996Z" fill="white"/>
<path d="M81.0873 19.589V0.41095H92.786V2.79451H83.6627V8.76711H91.9367V11.1507H83.6627V17.2055H92.786V19.589H81.0873Z" fill="white"/>
<path d="M65.4891 19.589V0.41095H68.0644V17.1233H77.2425V19.589H65.4891Z" fill="white"/>
<path d="M49.3022 19.589V0.41095H56.2064C59.7954 0.41095 62.2064 3.17807 62.2064 6.43835C62.2064 9.72602 59.7954 12.4383 56.2064 12.4383H51.8776V19.589H49.3022ZM51.8776 10.0548H55.768C58.1242 10.0548 59.5214 8.46574 59.5214 6.43835C59.5214 4.41095 58.1242 2.79451 55.768 2.79451H51.8776V10.0548Z" fill="white"/>
<path d="M24.634 19.589V0.41095H27.2641L34.497 12.2192L41.7847 0.41095H44.36V19.589H41.8395V4.9041L34.6066 16.5753H34.3326L27.1545 4.9041V19.589H24.634Z" fill="white"/>
<path d="M17.1158 19.589V0.41095H19.6911V19.589H17.1158Z" fill="white"/>
<path d="M8.0274 8.87671C11.2603 9.58904 13.0137 11.5616 13.0137 14.3836C13.0137 17.2877 10.7671 20 6.60274 20C3.67123 20 1.56164 19.0959 0.136986 18.3288V15.7534C1.75342 16.6849 4.21918 17.6164 6.60274 17.6164C9.28767 17.6164 10.3288 16.1918 10.3288 14.3836C10.3288 13.0137 9.36986 11.726 7.42466 11.3151L4.65753 10.7123C1.78082 10.0822 0 8.43836 0 5.42466C0 2.49315 2.41096 0 6.76712 0C8.9863 0 10.6027 0.520548 12.0274 1.12329V3.75343C10.411 2.93151 8.54795 2.35616 6.76712 2.35616C4.24658 2.35616 2.63014 3.53425 2.63014 5.42466C2.63014 6.93151 3.47945 7.89041 5.12329 8.24658L8.0274 8.87671Z" fill="white"/>
<path d="M206 17.608H207V2.39203H206V17.608Z" fill="#CFDBE6"/>
<path d="M244.597 19.5804L237.8 10.2098L234.863 13.2028V19.5804H232.234V0H234.863V9.67832L244.178 0H247.758L239.618 8.33566L247.87 19.5804H244.597Z" fill="#8974E7"/>
<path d="M220.189 20C216.161 20 213 17.5944 213 12.9231V0H215.629V12.8392C215.629 15.7762 217.448 17.4825 220.189 17.4825C222.958 17.4825 224.72 15.7762 224.72 12.8392V0H227.349V12.9231C227.349 17.5944 224.217 20 220.189 20Z" fill="#8974E7"/>
</svg>
