<svg width="21" height="20" viewBox="0 0 21 20" fill="none" xmlns="http://www.w3.org/2000/svg">
<path d="M15.3418 4.16667H17.8418" stroke="#5D40DD" stroke-linecap="round" stroke-linejoin="round"/>
<path d="M2.8418 4.16667H12.0085" stroke="#5D40DD" stroke-linecap="round" stroke-linejoin="round"/>
<path d="M8.67578 9.99992H17.8424" stroke="#5D40DD" stroke-linecap="round" stroke-linejoin="round"/>
<path d="M2.8418 9.99992H5.3418" stroke="#5D40DD" stroke-linecap="round" stroke-linejoin="round"/>
<path d="M15.3418 15.8334H17.8418" stroke="#5D40DD" stroke-linecap="round" stroke-linejoin="round"/>
<path d="M2.8418 15.8334H12.0085" stroke="#5D40DD" stroke-linecap="round" stroke-linejoin="round"/>
<path d="M14.853 2.98816C15.5039 3.63903 15.5039 4.69431 14.853 5.34518C14.2021 5.99605 13.1468 5.99605 12.496 5.34518C11.8451 4.69431 11.8451 3.63903 12.496 2.98816C13.1468 2.33728 14.2021 2.33728 14.853 2.98816" stroke="#5D40DD" stroke-linecap="round" stroke-linejoin="round"/>
<path d="M8.18698 8.82141C8.83785 9.47228 8.83785 10.5276 8.18698 11.1784C7.5361 11.8293 6.48083 11.8293 5.82995 11.1784C5.17908 10.5276 5.17908 9.47228 5.82995 8.82141C6.48083 8.17053 7.5361 8.17053 8.18698 8.82141" stroke="#5D40DD" stroke-linecap="round" stroke-linejoin="round"/>
<path d="M14.853 14.6549C15.5039 15.3058 15.5039 16.3611 14.853 17.0119C14.2021 17.6628 13.1468 17.6628 12.496 17.0119C11.8451 16.3611 11.8451 15.3058 12.496 14.6549C13.1468 14.004 14.2021 14.004 14.853 14.6549" stroke="#5D40DD" stroke-linecap="round" stroke-linejoin="round"/>
</svg>
