<svg width="16" height="16" viewBox="0 0 16 16" fill="none" xmlns="http://www.w3.org/2000/svg">
<path fill-rule="evenodd" clip-rule="evenodd" d="M11.6629 3.51516V3.51516C12.6348 4.487 13.1807 5.80511 13.1807 7.1795C13.1807 8.55389 12.6348 9.872 11.6629 10.8438V10.8438L8.86209 13.6447C8.38519 14.1216 7.61199 14.1216 7.13509 13.6447L4.33423 10.8438C3.36238 9.87197 2.81641 8.55387 2.81641 7.17947C2.81641 5.80508 3.36238 4.48698 4.33423 3.51513V3.51513C5.30607 2.54329 6.62418 1.99731 7.99858 1.99731C9.37298 1.99731 10.6911 2.54331 11.6629 3.51516Z" stroke="#5D40DD" stroke-width="1.5" stroke-linecap="round" stroke-linejoin="round"/>
<path fill-rule="evenodd" clip-rule="evenodd" d="M6.50755 8.71556C5.74399 7.952 5.74399 6.71402 6.50755 5.95046L6.6169 5.84111C7.38046 5.07755 8.61844 5.07755 9.382 5.84111L9.49135 5.95046C10.2549 6.71402 10.2549 7.952 9.49135 8.71556L9.382 8.82491C8.61844 9.58847 7.38046 9.58847 6.6169 8.82491L6.50755 8.71556Z" stroke="#5D40DD" stroke-width="1.5" stroke-linecap="round" stroke-linejoin="round"/>
</svg>
